{
  "accessors": [
    {
      "bufferView": 0,
      "componentType": 5125,
      "count": 377088,
      "type": "SCALAR"
    },
    {
      "bufferView": 1,
      "componentType": 5126,
      "count": 66648,
      "max": [
        22.2086296081543,
        30.154655456543,
        13.1201267242432
      ],
      "min": [
        -20.1357822418213,
        -7.15100574493408,
        -13.1201305389404
      ],
      "type": "VEC3"
    },
    {
      "bufferView": 2,
      "componentType": 5126,
      "count": 66648,
      "type": "VEC3"
    },
    {
      "bufferView": 3,
      "componentType": 5126,
      "count": 66648,
      "type": "VEC4"
    },
    {
      "bufferView": 4,
      "componentType": 5126,
      "count": 66648,
      "type": "VEC2"
    },
    {
      "bufferView": 5,
      "componentType": 5125,
      "count": 216960,
      "type": "SCALAR"
    },
    {
      "bufferView": 6,
      "componentType": 5126,
      "count": 38402,
      "max": [
        6.22602844238281,
        34.2637176513672,
        6.22602796554565
      ],
      "min": [
        -6.22602844238281,
        29.2635345458984,
        -6.22602939605713
      ],
      "type": "VEC3"
    },
    {
      "bufferView": 7,
      "componentType": 5126,
      "count": 38402,
      "type": "VEC3"
    },
    {
      "bufferView": 8,
      "componentType": 5126,
      "count": 38402,
      "type": "VEC4"
    },
    {
      "bufferView": 9,
      "componentType": 5126,
      "count": 38402,
      "type": "VEC2"
    }
  ],
  "asset": {
    "generator": "Adobe Substance 3D Painter 8.2.0",
    "version": "2.0"
  },
  "bufferViews": [
    {
      "buffer": 0,
      "byteLength": 1508352,
      "target": 34963
    },
    {
      "buffer": 0,
      "byteLength": 799776,
      "byteOffset": 1508352,
      "target": 34962
    },
    {
      "buffer": 0,
      "byteLength": 799776,
      "byteOffset": 2308128,
      "target": 34962
    },
    {
      "buffer": 0,
      "byteLength": 1066368,
      "byteOffset": 3107904,
      "target": 34962
    },
    {
      "buffer": 0,
      "byteLength": 533184,
      "byteOffset": 4174272,
      "target": 34962
    },
    {
      "buffer": 0,
      "byteLength": 867840,
      "byteOffset": 4707456,
      "target": 34963
    },
    {
      "buffer": 0,
      "byteLength": 460824,
      "byteOffset": 5575296,
      "target": 34962
    },
    {
      "buffer": 0,
      "byteLength": 460824,
      "byteOffset": 6036120,
      "target": 34962
    },
    {
      "buffer": 0,
      "byteLength": 614432,
      "byteOffset": 6496944,
      "target": 34962
    },
    {
      "buffer": 0,
      "byteLength": 307216,
      "byteOffset": 7111376,
      "target": 34962
    }
  ],
  "buffers": [
    {
      "byteLength": 7418592,
      "uri": "무제.bin"
    }
  ],
  "images": [
    {
      "uri": "initialShadingGroup_baseColor.png"
    },
    {
      "uri": "initialShadingGroup_occlusionRoughnessMetallic.png"
    },
    {
      "uri": "initialShadingGroup_normal.png"
    }
  ],
  "materials": [
    {
      "alphaMode": "OPAQUE",
      "name": "initialShadingGroup",
      "normalTexture": {
        "index": 2
      },
      "occlusionTexture": {
        "index": 1
      },
      "pbrMetallicRoughness": {
        "baseColorTexture": {
          "index": 0
        },
        "metallicRoughnessTexture": {
          "index": 1
        }
      }
    }
  ],
  "meshes": [
    {
      "name": "bt:potbigbgroup2",
      "primitives": [
        {
          "attributes": {
            "NORMAL": 2,
            "POSITION": 1,
            "TANGENT": 3,
            "TEXCOORD_0": 4
          },
          "indices": 0,
          "material": 0,
          "mode": 4
        }
      ]
    },
    {
      "name": "bt:group2potbigtop",
      "primitives": [
        {
          "attributes": {
            "NORMAL": 7,
            "POSITION": 6,
            "TANGENT": 8,
            "TEXCOORD_0": 9
          },
          "indices": 5,
          "material": 0,
          "mode": 4
        }
      ]
    }
  ],
  "nodes": [
    {
      "children": [
        1,
        3
      ],
      "name": "tee.obj"
    },
    {
      "children": [
        2
      ],
      "name": "bt:potbigbgroup2"
    },
    {
      "mesh": 0,
      "name": "bt:potbigbgroup2"
    },
    {
      "children": [
        4
      ],
      "name": "bt:group2potbigtop"
    },
    {
      "mesh": 1,
      "name": "bt:group2potbigtop"
    }
  ],
  "samplers": [
    {
      "magFilter": 9729,
      "minFilter": 9985,
      "wrapS": 10497,
      "wrapT": 10497
    }
  ],
  "scene": 0,
  "scenes": [
    {
      "name": "Scene",
      "nodes": [
        0
      ]
    }
  ],
  "textures": [
    {
      "sampler": 0,
      "source": 0
    },
    {
      "sampler": 0,
      "source": 1
    },
    {
      "sampler": 0,
      "source": 2
    }
  ]
}